<svg xmlns="http://www.w3.org/2000/svg" width="512" height="512" viewBox="0 0 512 512"><path d="M0 0h512v512H0V0zm130.292 287.512L56 420.45h142.532l74.303-132.938H130.292zm150.14-2.351V418.339h18.549v-7.683c6.025 6.416 13.771 9.794 22.89 9.794 11.278 0 21.158-4.711 29.145-13.817 8.092-9.226 12.035-22.213 12.035-38.56 0-6.938-.937-13.487-2.82-19.632-1.88-6.128-4.5-11.436-7.885-15.861-3.419-4.47-7.8-7.952-13.047-10.398-5.234-2.44-10.819-3.66-16.664-3.66-8.716 0-16.329 3.137-22.548 9.123v-42.483H280.432v-.001zm40.841 50.838c6.014 0 10.931 2.489 15.28 7.88 4.194 5.2 6.513 13.639 6.513 25.514 0 11.563-2.383 19.93-6.8 25.369l-.01.02c-4.554 5.599-9.616 8.18-15.665 8.18-7.52 0-13.157-3.475-17.686-11.124-2.567-4.335-4.097-12.088-4.097-23.062 0-11.021 2.362-19.114 6.8-24.578 4.56-5.61 9.61-8.2 15.665-8.2zm94.76-17.477c-8.104 0-15.687 1.98-22.603 5.936-7.007 4.007-12.277 10.108-15.675 18.049-3.373 7.887-5.033 17.013-5.033 27.326 0 15.939 3.878 28.534 11.844 37.384 7.912 8.789 18.557 13.234 31.381 13.234 10.29 0 19.193-3.23 26.358-9.64 7.184-6.428 11.64-15.375 13.344-26.491l.351-2.286-2.213-.297-15.047-2.022-2.128-.286-.309 2.21c-1.03 7.566-3.419 12.854-6.959 16.202-3.625 3.428-8.007 5.122-13.567 5.122-6.945 0-12.252-2.494-16.526-7.717-4.136-5.054-6.459-13.616-6.459-25.853 0-12.046 2.39-20.5 6.693-25.601 4.438-5.258 9.947-7.793 17.132-7.793 4.664 0 8.431 1.39 11.642 4.21 3.165 2.78 5.47 6.994 6.811 12.926l.458 2.034 1.99-.32 14.876-2.373 2.224-.352-.426-2.286c-1.833-9.832-6.096-17.675-12.759-23.15-6.667-5.477-15.233-8.166-25.4-8.166z"/></svg>
