<svg xmlns="http://www.w3.org/2000/svg" width="169.074" height="169.074" viewBox="82.773 298.51 169.074 169.074"><path d="M247.405 327.647c-2.155-5.553-5.03-10.257-9.734-14.96-4.703-4.704-9.407-7.578-14.96-9.734-5.357-2.091-11.563-3.527-20.514-3.92-9.016-.392-11.891-.522-34.887-.522s-25.87.065-34.886.522c-9.016.393-15.157 1.829-20.514 3.92-5.554 2.156-10.257 5.03-14.961 9.734-4.704 4.703-7.578 9.407-9.734 14.96-2.091 5.357-3.527 11.563-3.92 20.514-.392 9.016-.522 11.891-.522 34.887s.065 25.871.522 34.887c.393 9.016 1.829 15.156 3.92 20.514 2.156 5.553 5.03 10.257 9.734 14.96 4.704 4.704 9.407 7.579 14.961 9.734 5.356 2.091 11.563 3.528 20.514 3.92 9.016.393 11.89.522 34.886.522s25.871-.065 34.887-.522c9.016-.392 15.156-1.829 20.514-3.92 5.553-2.155 10.257-5.03 14.96-9.734 4.704-4.703 7.579-9.407 9.734-14.96 2.091-5.357 3.528-11.563 3.92-20.514.392-9.016.522-11.891.522-34.887s-.065-25.871-.522-34.887c-.392-9.015-1.829-15.156-3.92-20.514zm-11.302 89.569c-.393 8.231-1.764 12.739-2.94 15.679-1.502 3.92-3.396 6.795-6.337 9.734-2.939 2.94-5.749 4.77-9.734 6.337-3.005 1.177-7.447 2.548-15.679 2.94-8.95.392-11.563.522-34.168.522-22.604 0-25.282-.065-34.167-.522-8.232-.393-12.74-1.764-15.68-2.94-3.92-1.502-6.794-3.396-9.734-6.337-2.939-2.939-4.769-5.749-6.337-9.734-1.176-3.005-2.548-7.447-2.939-15.679-.393-8.95-.522-11.629-.522-34.168s.064-25.283.522-34.168c.392-8.231 1.764-12.739 2.939-15.679 1.503-3.92 3.397-6.795 6.337-9.734s5.749-4.77 9.734-6.337c3.005-1.176 7.447-2.548 15.68-2.939 8.95-.393 11.628-.523 34.167-.523s25.283.065 34.168.523c8.231.392 12.739 1.764 15.679 2.939 3.92 1.503 6.795 3.397 9.734 6.337 2.94 2.939 4.77 5.749 6.337 9.734 1.177 3.005 2.548 7.447 2.94 15.679.392 8.95.522 11.629.522 34.168s-.13 25.283-.522 34.168zm-68.858-77.613c-23.976 0-43.444 19.468-43.444 43.444s19.469 43.444 43.444 43.444c23.977 0 43.444-19.468 43.444-43.444s-19.468-43.444-43.444-43.444zm0 71.667c-15.548 0-28.223-12.608-28.223-28.223 0-15.549 12.609-28.223 28.223-28.223 15.614 0 28.223 12.608 28.223 28.223 0 15.549-12.674 28.223-28.223 28.223zm45.143-83.492c5.593 0 10.126 4.534 10.126 10.126 0 5.593-4.533 10.127-10.126 10.127s-10.126-4.534-10.126-10.127c0-5.592 4.534-10.126 10.126-10.126z"/></svg>