<svg xmlns="http://www.w3.org/2000/svg" width="24" height="24" viewBox="0 0 24 24"><path d="M7 17.939H6V9.871a4.099 4.099 0 0 1 1-.566v8.634zm3 0h1V8.715a5.576 5.576 0 0 0-.621.857L10 9.388v8.551zm-2 0h1V9.091c-.508-.079-.623-.05-1-.01v8.858zm-4 0h1v-7.021a4.69 4.69 0 0 0-.692 1.535L4 12.272v5.667zm-3-5.25c-.606.547-1 1.354-1 2.268s.394 1.721 1 2.268v-4.536zm18.879-.671c-.204-2.837-2.404-5.079-5.117-5.079A4.849 4.849 0 0 0 12 7.816V17.94h9.089c1.606 0 2.911-1.394 2.911-3.106 0-2.234-2.168-3.773-4.121-2.816zM3 11.991c-.302-.024-.526-.03-1 .122v5.69c.446.143.636.137 1 .137v-5.949z"/></svg>