<svg xmlns="http://www.w3.org/2000/svg" width="350" height="300" viewBox="0 0 350 300"><path d="M350.002 35.509c-3.976 6.658-9.353 13.688-16.132 21.086-5.377 5.918-11.926 11.961-19.639 18.125V79.53c0 1.232.115 2.096.348 2.589v2.589c0 25.401-4.557 50.864-13.676 76.39-9.118 25.522-22.094 48.396-38.928 68.617-18.004 21.702-39.862 38.842-65.581 51.419-25.721 12.577-54.478 18.865-86.272 18.865-20.576 0-39.979-2.958-58.218-8.877-18.703-5.92-36.005-14.304-51.905-25.155.938.247 2.338.371 4.209.371 3.74.493 6.547.739 8.418.739h4.558c16.366 0 32.384-2.835 48.048-8.509 14.496-5.424 28.172-13.315 41.032-23.674-14.964-.246-28.876-5.426-41.732-15.537-12.627-9.863-21.045-22.317-25.252-37.36 3.507.739 5.728 1.108 6.664 1.108h3.504c.704.246 1.755.371 3.158.371 2.103 0 3.741-.125 4.911-.371 2.337 0 5.611-.494 9.818-1.479.466 0 1.17-.124 2.104-.37.937-.246 1.636-.369 2.103-.369-16.601-3.453-30.276-12.207-41.033-26.265-10.988-14.057-16.479-30.086-16.479-48.088V105.424c4.442 2.959 9.586 5.179 15.431 6.658 6.078 1.972 11.806 2.96 17.185 2.96-10.29-7.398-18.004-16.4-23.147-27.004-5.846-10.851-8.768-22.936-8.768-36.252 0-7.398.816-14.057 2.454-19.976.937-4.193 3.273-10.234 7.015-18.125 18.237 23.673 39.979 42.169 65.231 55.487 25.952 14.303 53.54 22.194 82.766 23.675-.701-5.18-1.05-8.015-1.05-8.508-.472-3.453-.704-6.288-.704-8.509 0-20.962 7.015-38.841 21.042-53.637C205.514 7.396 222.464-.002 242.339-.002c10.286 0 19.988 2.096 29.107 6.288 9.118 4.685 16.95 10.605 23.498 17.756 7.481-1.727 15.43-4.192 23.846-7.398 7.016-2.713 14.264-6.412 21.744-11.097-2.803 8.877-6.897 16.892-12.271 24.044-6.081 7.398-12.509 13.316-19.291 17.756a319.231 319.231 0 0 0 21.041-4.44c5.375-1.479 12.039-3.946 19.989-7.398z"/></svg>