<?xml version="1.0" encoding="utf-8"?>
<!-- Generator: Adobe Illustrator 16.0.3, SVG Export Plug-In . SVG Version: 6.00 Build 0)  -->
<!DOCTYPE svg PUBLIC "-//W3C//DTD SVG 1.1//EN" "http://www.w3.org/Graphics/SVG/1.1/DTD/svg11.dtd" [
	<!ENTITY st0 "fill:#FF0000;">
]>
<svg version="1.1"
	 id="Layer_1" xmlns:cc="http://creativecommons.org/ns#" xmlns:dc="http://purl.org/dc/elements/1.1/" xmlns:inkscape="http://www.inkscape.org/namespaces/inkscape" xmlns:rdf="http://www.w3.org/1999/02/22-rdf-syntax-ns#" xmlns:sodipodi="http://sodipodi.sourceforge.net/DTD/sodipodi-0.dtd" xmlns:svg="http://www.w3.org/2000/svg"
	 xmlns="http://www.w3.org/2000/svg" xmlns:xlink="http://www.w3.org/1999/xlink" x="0px" y="0px" width="512px" height="512px"
	 viewBox="0 0 512 512" style="enable-background:new 0 0 512 512;" xml:space="preserve">
<path id="g5026" transform="translate(1337.5001,-329.71448)" d="M-1337.5,329.714h512v512h-512V329.714z
	 M-1207.208,617.226l-74.292,132.938h142.532l74.303-132.938H-1207.208L-1207.208,617.226z M-1057.068,614.875v2.242v128.694v2.242
	h2.182h14.185h2.182v-2.242v-5.441c6.025,6.416,13.771,9.794,22.889,9.794c11.279,0,21.159-4.711,29.146-13.817
	c8.092-9.226,12.035-22.213,12.035-38.56c0-6.938-0.937-13.487-2.82-19.632c-1.88-6.128-4.5-11.436-7.885-15.861
	c-3.419-4.469-7.801-7.952-13.047-10.398c-5.234-2.44-10.819-3.66-16.664-3.66c-8.716,0-16.329,3.137-22.548,9.123v-40.241v-2.242
	h-2.182h-15.291H-1057.068L-1057.068,614.875z M-1016.227,665.713c6.014,0,10.931,2.489,15.28,7.881
	c4.194,5.199,6.513,13.638,6.513,25.513c0,11.563-2.383,19.931-6.8,25.369l-0.011,0.021c-4.553,5.598-9.615,8.179-15.664,8.179
	c-7.52,0-13.157-3.475-17.686-11.124c-2.567-4.335-4.097-12.088-4.097-23.062c0-11.021,2.362-19.114,6.8-24.578
	C-1027.333,668.302-1022.283,665.713-1016.227,665.713L-1016.227,665.713z M-921.468,648.236c-8.103,0-15.686,1.98-22.602,5.936
	c-7.007,4.007-12.277,10.108-15.675,18.049c-3.373,7.887-5.033,17.013-5.033,27.326c0,15.939,3.878,28.534,11.844,37.384
	c7.912,8.789,18.557,13.234,31.381,13.234c10.289,0,19.193-3.229,26.358-9.64c7.184-6.428,11.639-15.375,13.344-26.491l0.351-2.286
	l-2.213-0.297l-15.047-2.022l-2.128-0.286l-0.309,2.21c-1.031,7.566-3.419,12.854-6.959,16.202
	c-3.625,3.428-8.007,5.122-13.567,5.122c-6.945,0-12.252-2.494-16.526-7.717c-4.136-5.054-6.459-13.616-6.459-25.853
	c0-12.046,2.389-20.5,6.693-25.601c4.438-5.258,9.947-7.793,17.132-7.793c4.664,0,8.431,1.39,11.642,4.21
	c3.165,2.78,5.469,6.994,6.811,12.926l0.458,2.034l1.989-0.319l14.877-2.374l2.224-0.352l-0.426-2.286
	c-1.833-9.832-6.096-17.675-12.759-23.149C-902.734,650.925-911.3,648.236-921.468,648.236z"/>
</svg>
