<?xml version="1.0" encoding="utf-8"?>
<!-- Generator: Adobe Illustrator 16.0.3, SVG Export Plug-In . SVG Version: 6.00 Build 0)  -->
<!DOCTYPE svg PUBLIC "-//W3C//DTD SVG 1.1//EN" "http://www.w3.org/Graphics/SVG/1.1/DTD/svg11.dtd">
<svg version="1.1" id="レイヤー_1" xmlns="http://www.w3.org/2000/svg" xmlns:xlink="http://www.w3.org/1999/xlink" x="0px"
	 y="0px" width="300px" height="300px" viewBox="0 0 300 300" style="enable-background:new 0 0 300 300;" xml:space="preserve">
<path d="M283,0H17C7.853,0,0,7.854,0,17v266c0,9.145,7.854,17,17,17h144V183h-40v-44h40v-34c0-38.749,22.433-60,57-60
	c16.559,0,31.853,1.449,36,2v41h-25c-18.799,0-22,8.891-22,22v29h45l-6,44h-39v117h76c9.145,0,17-7.855,17-17V17
	C300,7.854,292.144,0,283,0z"/>
</svg>
