<?xml version="1.0" encoding="utf-8"?>
<!-- Generator: Adobe Illustrator 16.0.3, SVG Export Plug-In . SVG Version: 6.00 Build 0)  -->
<!DOCTYPE svg PUBLIC "-//W3C//DTD SVG 1.1//EN" "http://www.w3.org/Graphics/SVG/1.1/DTD/svg11.dtd">
<svg version="1.1" id="Layer_1" xmlns="http://www.w3.org/2000/svg" xmlns:xlink="http://www.w3.org/1999/xlink" x="0px" y="0px"
	 width="169.074px" height="169.074px" viewBox="82.773 298.51 169.074 169.074"
	 style="enable-background:new 82.773 298.51 169.074 169.074;" xml:space="preserve">
<path id="XMLID_138_" d="M247.405,327.647c-2.155-5.553-5.03-10.257-9.734-14.96c-4.703-4.704-9.407-7.578-14.96-9.734
	c-5.357-2.091-11.563-3.527-20.514-3.92c-9.016-0.392-11.891-0.522-34.887-0.522s-25.87,0.065-34.886,0.522
	c-9.016,0.393-15.157,1.829-20.514,3.92c-5.554,2.156-10.257,5.03-14.961,9.734c-4.704,4.703-7.578,9.407-9.734,14.96
	c-2.091,5.357-3.527,11.563-3.92,20.514c-0.392,9.016-0.522,11.891-0.522,34.887s0.065,25.871,0.522,34.887
	c0.393,9.016,1.829,15.156,3.92,20.514c2.156,5.553,5.03,10.257,9.734,14.96c4.704,4.704,9.407,7.579,14.961,9.734
	c5.356,2.091,11.563,3.528,20.514,3.92c9.016,0.393,11.89,0.522,34.886,0.522s25.871-0.065,34.887-0.522
	c9.016-0.392,15.156-1.829,20.514-3.92c5.553-2.155,10.257-5.03,14.96-9.734c4.704-4.703,7.579-9.407,9.734-14.96
	c2.091-5.357,3.528-11.563,3.92-20.514c0.392-9.016,0.522-11.891,0.522-34.887s-0.065-25.871-0.522-34.887
	C250.933,339.146,249.496,333.005,247.405,327.647z M236.103,417.216c-0.393,8.231-1.764,12.739-2.94,15.679
	c-1.502,3.92-3.396,6.795-6.337,9.734c-2.939,2.94-5.749,4.77-9.734,6.337c-3.005,1.177-7.447,2.548-15.679,2.94
	c-8.95,0.392-11.563,0.522-34.168,0.522c-22.604,0-25.282-0.065-34.167-0.522c-8.232-0.393-12.74-1.764-15.68-2.94
	c-3.92-1.502-6.794-3.396-9.734-6.337c-2.939-2.939-4.769-5.749-6.337-9.734c-1.176-3.005-2.548-7.447-2.939-15.679
	c-0.393-8.95-0.522-11.629-0.522-34.168s0.064-25.283,0.522-34.168c0.392-8.231,1.764-12.739,2.939-15.679
	c1.503-3.92,3.397-6.795,6.337-9.734c2.94-2.939,5.749-4.77,9.734-6.337c3.005-1.176,7.447-2.548,15.68-2.939
	c8.95-0.393,11.628-0.523,34.167-0.523s25.283,0.065,34.168,0.523c8.231,0.392,12.739,1.764,15.679,2.939
	c3.92,1.503,6.795,3.397,9.734,6.337c2.94,2.939,4.77,5.749,6.337,9.734c1.177,3.005,2.548,7.447,2.94,15.679
	c0.392,8.95,0.522,11.629,0.522,34.168S236.495,408.331,236.103,417.216z M167.245,339.603c-23.976,0-43.444,19.468-43.444,43.444
	s19.469,43.444,43.444,43.444c23.977,0,43.444-19.468,43.444-43.444S191.221,339.603,167.245,339.603z M167.245,411.27
	c-15.548,0-28.223-12.608-28.223-28.223c0-15.549,12.609-28.223,28.223-28.223c15.614,0,28.223,12.608,28.223,28.223
	C195.468,398.596,182.794,411.27,167.245,411.27z M212.388,327.778c5.593,0,10.126,4.534,10.126,10.126
	c0,5.593-4.533,10.127-10.126,10.127s-10.126-4.534-10.126-10.127C202.262,332.312,206.796,327.778,212.388,327.778z"/>
</svg>
