<?xml version="1.0" encoding="utf-8"?>
<!-- Generator: Adobe Illustrator 16.0.3, SVG Export Plug-In . SVG Version: 6.00 Build 0)  -->
<!DOCTYPE svg PUBLIC "-//W3C//DTD SVG 1.1//EN" "http://www.w3.org/Graphics/SVG/1.1/DTD/svg11.dtd">
<svg version="1.1" id="レイヤー_1" xmlns="http://www.w3.org/2000/svg" xmlns:xlink="http://www.w3.org/1999/xlink" x="0px"
	 y="0px" width="350px" height="300px" viewBox="0 0 350 300" style="enable-background:new 0 0 350 300;" xml:space="preserve">
<path d="M350.002,35.509c-3.976,6.658-9.353,13.688-16.132,21.086c-5.377,5.918-11.926,11.961-19.639,18.125v2.22v2.59
	c0,1.232,0.115,2.096,0.348,2.589v2.589c0,25.401-4.557,50.864-13.676,76.39c-9.118,25.522-22.094,48.396-38.928,68.617
	c-18.004,21.702-39.862,38.842-65.581,51.419c-25.721,12.577-54.478,18.865-86.272,18.865c-20.576,0-39.979-2.958-58.218-8.877
	c-18.703-5.92-36.005-14.304-51.905-25.155c0.938,0.247,2.338,0.371,4.209,0.371c3.74,0.493,6.547,0.739,8.418,0.739h4.558
	c16.366,0,32.384-2.835,48.048-8.509c14.496-5.424,28.172-13.315,41.032-23.674c-14.964-0.246-28.876-5.426-41.732-15.537
	c-12.627-9.863-21.045-22.317-25.252-37.36c3.507,0.739,5.728,1.108,6.664,1.108h3.504c0.704,0.246,1.755,0.371,3.158,0.371
	c2.103,0,3.741-0.125,4.911-0.371c2.337,0,5.611-0.494,9.818-1.479c0.466,0,1.17-0.124,2.104-0.37
	c0.937-0.246,1.636-0.369,2.103-0.369c-16.601-3.453-30.276-12.207-41.033-26.265c-10.988-14.057-16.479-30.086-16.479-48.088
	v-0.371v-0.369v-0.37c4.442,2.959,9.586,5.179,15.431,6.658c6.078,1.972,11.806,2.96,17.185,2.96
	c-10.29-7.398-18.004-16.4-23.147-27.004c-5.846-10.851-8.768-22.936-8.768-36.252c0-7.398,0.816-14.057,2.454-19.976
	c0.937-4.193,3.273-10.234,7.015-18.125c18.237,23.673,39.979,42.169,65.231,55.487c25.952,14.303,53.54,22.194,82.766,23.675
	c-0.701-5.18-1.05-8.015-1.05-8.508c-0.472-3.453-0.704-6.288-0.704-8.509c0-20.962,7.015-38.841,21.042-53.637
	c14.029-14.797,30.979-22.195,50.854-22.195c10.286,0,19.988,2.096,29.107,6.288c9.118,4.685,16.95,10.605,23.498,17.756
	c7.481-1.727,15.43-4.192,23.846-7.398c7.016-2.713,14.264-6.412,21.744-11.097c-2.803,8.877-6.897,16.892-12.271,24.044
	c-6.081,7.398-12.509,13.316-19.291,17.756c7.015-1.234,14.029-2.713,21.041-4.44C335.388,41.428,342.052,38.961,350.002,35.509z"/>
</svg>
